<?xml version="1.0"?>
<svg width="120" height="56" xmlns="http://www.w3.org/2000/svg" xmlns:svg="http://www.w3.org/2000/svg" version="1.1">
 <title>Artboard</title>
 <g class="layer" display="inline">
  <title>Layer 1</title>
  <g fill="none" fill-rule="evenodd" id="Artboard" transform="translate(0 0.135) translate(4.85 0) translate(-4.44 0) translate(4.10945 1.16827) scale(1.12528 1.12528) translate(-4.10945 -1.16827) translate(0.294118 -2.94118) matrix(0.288284 0 0 0.288284 -4.53907 -29.9022)">
   <g fill="#FFFFFF" fill-rule="nonzero" id="blog-images-logo-ipsum" transform="translate(30.000000, 119.000000)">
    <polygon id="Path" points="0 97.7369632 10.9677419 97.7369632 10.9677419 147.602761 0 147.602761"/>
    <path d="m16.95,130.68c-0.01,-7.26 4.35,-13.82 11.06,-16.61c6.7,-2.79 14.43,-1.26 19.57,3.87c5.14,5.13 6.68,12.86 3.9,19.57c-2.77,6.71 -9.32,11.09 -16.58,11.09c-4.77,0.05 -9.36,-1.82 -12.74,-5.19c-3.38,-3.37 -5.25,-7.96 -5.21,-12.73l0,0zm25.74,0c-0.11,-4.28 -3.64,-7.67 -7.92,-7.59c-4.28,0.07 -7.7,3.58 -7.67,7.86c0.04,4.28 3.52,7.73 7.8,7.73c2.12,0.06 4.17,-0.77 5.65,-2.29c1.48,-1.52 2.26,-3.59 2.14,-5.71l0,0z" id="Shape"/>
    <path d="m93.72,113.66l0,32.5c0,11.5 -8.88,16.35 -17.86,16.35c-6.43,0.49 -12.6,-2.7 -15.98,-8.27l8.65,-5.06c1.4,2.87 4.39,4.57 7.54,4.31c2.05,0.35 4.14,-0.29 5.66,-1.73c1.53,-1.43 2.3,-3.5 2.11,-5.6l0,-3.15c-2.4,2.98 -6.06,4.63 -9.85,4.44c-9.48,0 -17.16,-7.78 -17.16,-17.37c0,-9.59 7.68,-17.37 17.16,-17.37c3.79,-0.18 7.44,1.47 9.85,4.44l0,-3.39l9.88,-0.1zm-9.88,16.42c0.14,-3.38 -1.77,-6.5 -4.81,-7.89c-3.04,-1.38 -6.61,-0.76 -9.02,1.58c-2.41,2.33 -3.17,5.92 -1.93,9.06c1.25,3.13 4.25,5.19 7.58,5.19c2.16,0.15 4.27,-0.62 5.83,-2.13c1.56,-1.52 2.41,-3.63 2.35,-5.81z" id="svg_4"/>
    <path d="m99.71,130.68c-0.02,-7.26 4.35,-13.82 11.05,-16.61c6.71,-2.79 14.43,-1.26 19.57,3.87c5.14,5.13 6.68,12.86 3.91,19.57c-2.78,6.71 -9.32,11.09 -16.59,11.09c-4.77,0.05 -9.36,-1.82 -12.73,-5.19c-3.38,-3.37 -5.26,-7.96 -5.21,-12.73zm25.74,0c-0.11,-4.28 -3.65,-7.67 -7.93,-7.59c-4.28,0.07 -7.7,3.58 -7.66,7.86c0.04,4.28 3.51,7.73 7.79,7.73c2.11,0.04 4.14,-0.8 5.61,-2.31c1.47,-1.52 2.24,-3.58 2.12,-5.69l0.07,0z" id="svg_5"/>
    <path d="m140.59,103.95c0,-3.43 2.9,-6.21 6.48,-6.21c3.58,0 6.48,2.78 6.48,6.21c0,3.44 -2.9,6.22 -6.48,6.22c-3.57,-0.02 -6.46,-2.79 -6.48,-6.22zm1.1,9.22l10.68,0l0,34.43l-10.68,0l0,-34.43z" id="svg_6"/>
    <path d="m195.4,130.74c0.24,4.55 -1.3,9.02 -4.3,12.41c-3,3.39 -7.19,5.42 -11.66,5.64c-3.76,0.19 -7.4,-1.34 -9.95,-4.16l0,16.94l-9.96,0l0,-47.91l9.96,0l0,3.22c2.55,-2.83 6.19,-4.35 9.95,-4.17c4.46,0.22 8.65,2.25 11.65,5.63c2.99,3.38 4.54,7.84 4.31,12.4zm-9.95,0c-0.11,-4.44 -3.69,-7.97 -8.03,-7.93c-4.35,0.04 -7.86,3.63 -7.9,8.06c-0.04,4.44 3.42,8.09 7.76,8.2c2.2,0.14 4.35,-0.69 5.91,-2.29c1.55,-1.6 2.35,-3.8 2.19,-6.04l0.07,0z" id="svg_7"/>
    <path d="m227.33,137.39c0,7.82 -6.78,11.15 -14.24,11.15c-6.09,0.54 -11.9,-2.66 -14.67,-8.08l8.88,-5.02c0.74,2.52 3.15,4.19 5.79,4.01c2.48,0 3.7,-0.78 3.7,-2.12c0,-3.74 -16.95,-1.76 -16.95,-13.48c0,-7.41 6.31,-11.15 13.56,-11.15c5.45,-0.16 10.56,2.62 13.36,7.28l-8.92,4.65c-0.8,-1.82 -2.61,-3 -4.61,-3c-1.76,0 -2.85,0.67 -2.85,1.92c0.14,3.87 16.95,1.28 16.95,13.84z" id="svg_1"/>
    <path d="m264.22,113.69l0,33.91l-10.23,0l0,-3.16c-2.41,2.85 -6.06,4.38 -9.82,4.13c-6.82,0 -12.85,-4.87 -12.85,-14.06l0,-20.82l10.23,0l0,19.34c-0.18,1.67 0.41,3.33 1.6,4.53c1.2,1.19 2.88,1.79 4.57,1.63c3.75,0 6.38,-2.15 6.38,-6.96l0,-18.54l10.12,0z" id="svg_2"/>
    <path d="m324.05,126.8l0,20.8l-10.14,0l0,-19.92c0,-3.37 -1.65,-5.59 -4.9,-5.59c-3.24,0 -5.34,2.39 -5.34,6.39l0,19.12l-10.13,0l0,-19.92c0,-3.37 -1.63,-5.59 -4.9,-5.59c-3.28,0 -5.31,2.39 -5.31,6.39l0,19.12l-10.13,0l0,-33.93l10.13,0l0,3.13c2.16,-2.81 5.59,-4.34 9.13,-4.07c3.55,-0.17 6.94,1.53 8.92,4.48c2.29,-3.08 6.02,-4.78 9.86,-4.48c7.7,0 12.81,5.59 12.81,14.07z" id="svg_3"/>
    <ellipse cx="332.52" cy="105.22" id="Oval" rx="7.48" ry="7.48"/>
    <ellipse cx="115.16" cy="36.4" id="svg_8" rx="35.4" ry="35.4"/>
    <ellipse cx="194.93" cy="36.4" id="svg_9" rx="35.4" ry="35.4"/>
    <rect height="70.81" id="Rectangle" width="70.79" x="1" y="0"/>
   </g>
  </g>
 </g>
</svg>