<?xml version="1.0" encoding="utf-8"?>
<!-- Generator: Adobe Illustrator 24.1.2, SVG Export Plug-In . SVG Version: 6.00 Build 0)  -->
<svg version="1.1" id="Layer_1" xmlns="http://www.w3.org/2000/svg" xmlns:xlink="http://www.w3.org/1999/xlink" x="0px" y="0px"
	 width="408px" height="310px" viewBox="0 0 408 310" enable-background="new 0 0 408 310" xml:space="preserve">
<g>
	<g>
		<polygon fill="#262D33" points="1.5,308.5 1.5,9.1 9.1,1.5 406.5,1.5 406.5,300.9 398.9,308.5 		"/>
		<path fill="#5D6B75" d="M406,2v298.7l-7.3,7.3H2V9.3L9.3,2H406 M407,1H8.9L1,8.9V309h398.1l7.9-7.9V1L407,1z"/>
		<path fill="#262D33" d="M407,1v300.1l-7.9,7.9H1V8.9L8.9,1H407 M408,0h-1H8.9H8.5L8.2,0.3L0.3,8.2L0,8.5v0.4V309v1h1h398.1h0.4
			l0.3-0.3l7.9-7.9l0.3-0.3v-0.4V1L408,0L408,0z"/>
	</g>
</g>
</svg>
